<svg width="25" height="24" viewBox="0 0 25 24" fill="none" xmlns="http://www.w3.org/2000/svg">
<path d="M2.35742 22.7627C2.72803 22.7627 3.06494 22.6392 3.50293 22.3921L8.9834 19.4272L14.9692 22.7852C15.4409 23.0322 15.9238 23.167 16.3955 23.167C16.856 23.167 17.3164 23.0435 17.7207 22.8076L23.3359 19.6406C24.0996 19.2139 24.4365 18.6074 24.4365 17.7539V2.67139C24.4365 1.72803 23.875 1.1665 22.9429 1.1665C22.5723 1.1665 22.2466 1.30127 21.7974 1.54834L16.1035 4.71533L10.1963 1.13281C9.78076 0.896973 9.32031 0.773438 8.85986 0.773438C8.39941 0.773438 7.9502 0.885742 7.5459 1.12158L1.97559 4.28857C1.20068 4.71533 0.86377 5.31055 0.86377 6.16406V21.269C0.86377 22.2124 1.42529 22.7627 2.35742 22.7627ZM7.99512 17.4395L3.3457 20C3.26709 20.0337 3.19971 20.0674 3.14355 20.0674C3.02002 20.0674 2.94141 19.9663 2.94141 19.8203V6.73682C2.94141 6.42236 3.05371 6.22021 3.35693 6.05176L7.63574 3.56982C7.75928 3.49121 7.87158 3.43506 7.99512 3.36768V17.4395ZM10.1064 17.5068V3.63721C10.2188 3.69336 10.3535 3.76074 10.4658 3.82812L15.1938 6.68066V20.3481C15.0479 20.2695 14.8906 20.1909 14.7334 20.1123L10.1064 17.5068ZM17.3052 20.5166V6.48975L21.9658 3.95166C22.022 3.91797 22.0894 3.88428 22.1455 3.88428C22.269 3.88428 22.3589 3.98535 22.3589 4.12012V17.1587C22.3589 17.4731 22.2466 17.6753 21.9546 17.8438L17.8218 20.2358C17.6533 20.3369 17.4736 20.438 17.3052 20.5166Z" fill="white"/>
</svg>
