<svg width="25" height="25" viewBox="0 0 25 25" fill="none" xmlns="http://www.w3.org/2000/svg">
<path d="M12.2031 24.6445C18.8242 24.6445 24.3086 19.1719 24.3086 12.5391C24.3086 5.91797 18.8242 0.433594 12.1914 0.433594C5.57031 0.433594 0.0976562 5.91797 0.0976562 12.5391C0.0976562 19.1719 5.58203 24.6445 12.2031 24.6445ZM12.2031 22.2656C6.8125 22.2656 2.48828 17.9297 2.48828 12.5391C2.48828 7.14844 6.80078 2.82422 12.1914 2.82422C17.582 2.82422 21.918 7.14844 21.9297 12.5391C21.9297 17.9297 17.5938 22.2656 12.2031 22.2656ZM6.74219 14.2969C7.71484 14.2969 8.51172 13.5117 8.51172 12.5273C8.51172 11.5547 7.70312 10.7695 6.74219 10.7695C5.76953 10.7695 4.97266 11.5547 4.97266 12.5273C4.97266 13.5117 5.76953 14.2969 6.74219 14.2969ZM12.1914 14.2969C13.1641 14.2969 13.9492 13.5117 13.9492 12.5273C13.9492 11.5547 13.1641 10.7695 12.1914 10.7695C11.2188 10.7695 10.4219 11.5547 10.4219 12.5273C10.4219 13.5117 11.2188 14.2969 12.1914 14.2969ZM17.6289 14.2969C18.6133 14.2969 19.3984 13.5117 19.3984 12.5273C19.3984 11.5547 18.6133 10.7695 17.6289 10.7695C16.6562 10.7695 15.8711 11.5547 15.8711 12.5273C15.8711 13.5117 16.6562 14.2969 17.6289 14.2969Z" fill="white"/>
</svg>
