<svg width="19" height="19" viewBox="0 0 19 19" fill="none" xmlns="http://www.w3.org/2000/svg">
<path opacity="0.5" d="M0.133789 7.55762C0.133789 11.6396 3.45508 14.9609 7.53711 14.9609C9.15137 14.9609 10.6265 14.4414 11.8418 13.5693L16.4062 18.1431C16.6196 18.3564 16.8979 18.4585 17.1948 18.4585C17.8257 18.4585 18.2617 17.9854 18.2617 17.3638C18.2617 17.0669 18.1504 16.7979 17.9556 16.603L13.4189 12.0386C14.3745 10.7954 14.9404 9.24609 14.9404 7.55762C14.9404 3.47559 11.6191 0.154297 7.53711 0.154297C3.45508 0.154297 0.133789 3.47559 0.133789 7.55762ZM1.72021 7.55762C1.72021 4.34766 4.32715 1.74072 7.53711 1.74072C10.7471 1.74072 13.354 4.34766 13.354 7.55762C13.354 10.7676 10.7471 13.3745 7.53711 13.3745C4.32715 13.3745 1.72021 10.7676 1.72021 7.55762Z" fill="white"/>
</svg>
