<svg width="25" height="18" viewBox="0 0 25 18" fill="none" xmlns="http://www.w3.org/2000/svg">
<path d="M2.44727 3.59082C3.31201 3.59082 4.01953 2.8833 4.01953 2.00732C4.01953 1.14258 3.31201 0.435059 2.44727 0.435059C1.57129 0.435059 0.86377 1.14258 0.86377 2.00732C0.86377 2.8833 1.57129 3.59082 2.44727 3.59082ZM7.69189 3.07422H22.9541C23.5493 3.07422 24.021 2.60254 24.021 2.00732C24.021 1.41211 23.5493 0.94043 22.9541 0.94043H7.69189C7.09668 0.94043 6.625 1.41211 6.625 2.00732C6.625 2.60254 7.09668 3.07422 7.69189 3.07422ZM2.44727 10.4863C3.31201 10.4863 4.01953 9.77881 4.01953 8.90283C4.01953 8.03809 3.31201 7.33057 2.44727 7.33057C1.57129 7.33057 0.86377 8.03809 0.86377 8.90283C0.86377 9.77881 1.57129 10.4863 2.44727 10.4863ZM7.69189 9.96973H22.9541C23.5493 9.96973 24.021 9.49805 24.021 8.90283C24.021 8.30762 23.5493 7.83594 22.9541 7.83594H7.69189C7.09668 7.83594 6.625 8.30762 6.625 8.90283C6.625 9.49805 7.09668 9.96973 7.69189 9.96973ZM2.44727 17.3818C3.31201 17.3818 4.01953 16.6743 4.01953 15.7983C4.01953 14.9336 3.31201 14.2261 2.44727 14.2261C1.57129 14.2261 0.86377 14.9336 0.86377 15.7983C0.86377 16.6743 1.57129 17.3818 2.44727 17.3818ZM7.69189 16.8652H22.9541C23.5493 16.8652 24.021 16.3936 24.021 15.7983C24.021 15.2031 23.5493 14.7314 22.9541 14.7314H7.69189C7.09668 14.7314 6.625 15.2031 6.625 15.7983C6.625 16.3936 7.09668 16.8652 7.69189 16.8652Z" fill="white"/>
</svg>
